# xmcd
#
# Track frame offsets: 
#        150
#        14270
#        28419
#        44550
#        60945
#        72267
#        86897
#        102429
#        117842
#        132932
#        144845
#        162687
#        181280
#        195877
#        210722
#
# Disc length: 3059 seconds
#
# Revision: 1
# Processed by: cddbd v1.5.2PL0 Copyright (c) Steve Scherf et al.
# Submitted via: ExactAudioCopy v0.95b4
#
DISCID=d50bf10f
DTITLE=Los Tigres Del Norte - Historias que contar
DYEAR=2006
DGENRE=Ballad
TTITLE0=Señor locutor
TTITLE1=Al estilo mexicano
TTITLE2=Regalo caro
TTITLE3=Ingratitud
TTITLE4=Tú decides
TTITLE5=El vestido
TTITLE6=Una herida de amor
TTITLE7=Le compré la muerte a mi hijo
TTITLE8=Falso amor
TTITLE9=No diet
TTITLE10=Me haces falta
TTITLE11=Qué te parece?
TTITLE12=Libidinosamente
TTITLE13=El Zacatecas
TTITLE14=Qué te parece? °B
EXTD=
EXTT0=
EXTT1=
EXTT2=
EXTT3=
EXTT4=
EXTT5=
EXTT6=
EXTT7=
EXTT8=
EXTT9=
EXTT10=
EXTT11=
EXTT12=
EXTT13=
EXTT14=
PLAYORDER=
